<svg width="215" height="69" viewBox="0 0 215 69" fill="none" xmlns="http://www.w3.org/2000/svg">
<rect width="215" height="69" fill="#FFFEFE"/>
<path d="M48.8249 68.296C48.8249 68.296 48.4169 67.912 47.6009 67.144C46.7849 66.376 45.7289 65.392 44.4329 64.192C43.1849 63.04 41.8409 61.792 40.4009 60.448C39.0089 59.152 37.6889 57.928 36.4409 56.776C32.9849 58.552 29.6729 59.44 26.5049 59.44C23.7689 59.44 20.8889 58.768 17.8649 57.424C14.8889 56.032 12.0809 54.04 9.44091 51.448C6.80091 48.856 4.66491 45.736 3.03291 42.088C1.40091 38.44 0.584906 34.336 0.584906 29.776C0.584906 26.224 1.11291 22.936 2.16891 19.912C3.27291 16.84 4.73691 14.104 6.56091 11.704C8.38491 9.304 10.4249 7.264 12.6809 5.584C14.9369 3.856 17.2409 2.56 19.5929 1.696C21.9929 0.783996 24.2969 0.327996 26.5049 0.327996C28.6649 0.327996 30.9209 0.783996 33.2729 1.696C35.6729 2.608 37.9769 3.928 40.1849 5.656C42.4409 7.336 44.4809 9.376 46.3049 11.776C48.1289 14.176 49.5689 16.888 50.6249 19.912C51.6809 22.936 52.2089 26.224 52.2089 29.776C52.2089 34.816 51.2009 39.328 49.1849 43.312C47.2169 47.248 44.7449 50.488 41.7689 53.032L49.5449 68.008L48.8249 68.296ZM22.7609 44.032L33.7049 37.264L38.6009 46.768C39.3209 45.28 39.8729 43.6 40.2569 41.728C40.6889 39.808 40.9049 37.744 40.9049 35.536C40.9049 30.688 40.3529 26.464 39.2489 22.864C38.1449 19.216 36.7049 16.192 34.9289 13.792C33.1529 11.392 31.2569 9.592 29.2409 8.392C27.2729 7.192 25.4009 6.592 23.6249 6.592C21.4169 6.592 19.4249 7.336 17.6489 8.824C15.8729 10.264 14.4569 12.28 13.4009 14.872C12.3929 17.464 11.8889 20.512 11.8889 24.016C11.8889 29.152 12.4409 33.568 13.5449 37.264C14.6969 40.96 16.1609 43.984 17.9369 46.336C19.7609 48.688 21.6809 50.44 23.6969 51.592C25.7129 52.696 27.6089 53.248 29.3849 53.248C30.3449 53.248 31.2569 53.104 32.1209 52.816L22.7609 44.032ZM105.595 58.936L75.9312 32.512L76.0032 31.504C78.8352 30.928 81.3792 29.92 83.6352 28.48C85.9392 26.992 87.8592 25.312 89.3952 23.44C90.9792 21.52 92.0832 19.624 92.7072 17.752C93.1392 16.504 93.3552 15.328 93.3552 14.224C93.3552 12.352 92.7072 10.816 91.4112 9.616C90.1152 8.416 88.1232 7.816 85.4352 7.816C82.1232 7.816 78.6432 8.272 74.9952 9.184L73.9152 58H64.6992L62.0352 1.84H75.1392L75.0672 5.8C77.3232 4.552 79.6032 3.592 81.9072 2.92C84.2592 2.2 86.5152 1.84 88.6752 1.84C92.7072 1.84 95.9232 2.512 98.3232 3.856C100.723 5.152 102.451 6.808 103.507 8.824C104.611 10.792 105.163 12.832 105.163 14.944C105.163 16.384 104.947 17.728 104.515 18.976C103.843 21.04 102.667 22.912 100.987 24.592C99.3552 26.224 97.4592 27.592 95.2992 28.696C93.1872 29.8 91.0992 30.616 89.0352 31.144L106.531 59.008L105.595 58.936Z" fill="#540D6E"/>
<path d="M111.447 19.888L123.111 21.904L115.287 29.776L111.447 19.888ZM113.511 58L112.263 31.264H120.711L119.463 58H113.511ZM154.042 44.656C154.042 46.768 153.61 48.688 152.746 50.416C151.882 52.112 150.746 53.568 149.338 54.784C147.93 56 146.41 56.944 144.778 57.616C143.146 58.256 141.562 58.576 140.026 58.576C138.49 58.576 136.906 58.256 135.274 57.616C133.642 56.944 132.106 56 130.666 54.784C129.258 53.568 128.106 52.112 127.21 50.416C126.346 48.688 125.914 46.768 125.914 44.656C125.914 42.544 126.346 40.624 127.21 38.896C128.106 37.168 129.258 35.696 130.666 34.48C132.106 33.232 133.642 32.288 135.274 31.648C136.906 30.976 138.49 30.64 140.026 30.64C141.562 30.64 143.146 30.976 144.778 31.648C146.41 32.288 147.93 33.232 149.338 34.48C150.746 35.696 151.882 37.168 152.746 38.896C153.61 40.624 154.042 42.544 154.042 44.656ZM141.466 55.12C143.162 55.12 144.458 54.512 145.354 53.296C146.25 52.048 146.698 49.808 146.698 46.576C146.698 43.696 146.25 41.344 145.354 39.52C144.49 37.696 143.434 36.368 142.186 35.536C140.938 34.672 139.738 34.24 138.586 34.24C137.466 34.24 136.506 34.496 135.706 35.008C134.906 35.52 134.298 36.4 133.882 37.648C133.466 38.864 133.258 40.56 133.258 42.736C133.258 44.688 133.514 46.432 134.026 47.968C134.57 49.504 135.258 50.816 136.09 51.904C136.922 52.96 137.802 53.76 138.73 54.304C139.69 54.848 140.602 55.12 141.466 55.12ZM187.503 54.16C186.127 55.44 184.831 56.512 183.615 57.376C182.399 58.208 181.327 58.624 180.399 58.624C179.599 58.624 178.927 58.24 178.383 57.472C177.871 56.672 177.535 55.312 177.375 53.392C176.735 54.384 175.871 55.28 174.783 56.08C173.695 56.848 172.527 57.456 171.279 57.904C170.031 58.352 168.847 58.576 167.727 58.576C165.775 58.576 164.255 58.224 163.167 57.52C162.079 56.816 161.295 55.792 160.815 54.448C160.335 53.072 160.015 51.36 159.855 49.312L158.607 31.264H166.815L166.047 48.928V49.504C166.047 50.912 166.335 51.936 166.911 52.576C167.519 53.216 168.591 53.536 170.127 53.536C171.023 53.536 172.127 53.296 173.439 52.816C174.751 52.336 175.999 51.536 177.183 50.416L175.887 31.264H184.047L183.375 49.696V50.992C183.375 52.144 183.471 52.976 183.663 53.488C183.887 53.968 184.383 54.208 185.151 54.208C185.407 54.208 185.711 54.176 186.063 54.112C186.447 54.048 186.863 53.968 187.311 53.872L187.503 54.16ZM210.248 40.288C209.416 39.456 208.36 38.624 207.08 37.792C205.8 36.96 204.488 36.24 203.144 35.632C201.832 34.992 200.68 34.592 199.688 34.432C199.464 34.368 199.24 34.336 199.016 34.336C198.792 34.336 198.568 34.336 198.344 34.336C197.352 34.336 196.536 34.512 195.896 34.864C195.256 35.216 194.936 35.664 194.936 36.208C194.936 36.72 195.256 37.232 195.896 37.744C196.536 38.224 197.496 38.784 198.776 39.424C200.088 40.064 201.528 40.784 203.096 41.584C204.664 42.352 206.216 43.2 207.752 44.128C209.288 45.056 210.632 46.032 211.784 47.056C212.936 48.08 213.704 49.168 214.088 50.32C214.376 51.12 214.52 51.872 214.52 52.576C214.52 54.432 213.576 55.904 211.688 56.992C209.8 58.048 207 58.576 203.288 58.576C200.376 58.576 197.672 57.776 195.176 56.176C192.68 54.576 190.616 52.512 188.984 49.984L189.368 49.504C191.352 51.04 193.464 52.256 195.704 53.152C197.944 54.016 200.136 54.448 202.28 54.448C203.72 54.448 204.84 54.256 205.64 53.872C206.472 53.488 206.888 53.008 206.888 52.432C206.888 52.304 206.856 52.144 206.792 51.952C206.472 51.056 205.704 50.192 204.488 49.36C203.272 48.496 201.832 47.6 200.168 46.672C198.536 45.712 196.856 44.656 195.128 43.504C193.432 42.32 191.912 40.976 190.568 39.472C189.832 38.576 189.464 37.664 189.464 36.736C189.464 35.712 189.832 34.736 190.568 33.808C191.304 32.88 192.344 32.128 193.688 31.552C195.032 30.944 196.6 30.64 198.392 30.64C200.568 30.64 202.632 30.816 204.584 31.168C206.536 31.52 208.28 31.984 209.816 32.56C211.384 33.104 212.616 33.712 213.512 34.384L210.248 40.288Z" fill="#7B1B6C"/>
</svg>
